<svg width="83" height="19" fill="none" xmlns="http://www.w3.org/2000/svg"><path d="M6.08 15.28c2.6 0 4.26-1.16 5.24-2.98l-3.3-1.88c-.44.7-.9 1.1-1.7 1.1-.9 0-1.62-.82-1.62-1.96v-.04c0-1.08.72-1.92 1.68-1.92.74 0 1.22.4 1.6 1.1l3.26-1.84C10.4 5.08 8.7 3.84 6.3 3.84 2.74 3.84.34 6.5.34 9.56v.04c0 3.06 2.42 5.68 5.74 5.68zm11.435-.02c3.6 0 6.16-2.64 6.16-5.72V9.5c0-3.08-2.54-5.68-6.12-5.68-3.6 0-6.16 2.64-6.16 5.72v.04c0 3.08 2.54 5.68 6.12 5.68zm.04-3.78c-1 0-1.8-.86-1.8-1.94V9.5c0-1.04.74-1.9 1.76-1.9 1 0 1.8.86 1.8 1.94v.04c0 1.04-.74 1.9-1.76 1.9zm7.148 6.72h4.54v-4.44c.7.78 1.62 1.5 3.28 1.5 2.58 0 4.66-2.3 4.66-5.76v-.04c0-3.34-2.06-5.64-4.7-5.64-1.66 0-2.5.8-3.24 1.6V4.08h-4.54V18.2zm6.26-6.68c-1.04 0-1.82-.88-1.82-1.96v-.04c0-1.1.78-1.96 1.82-1.96s1.82.86 1.82 1.96v.04c0 1.1-.78 1.96-1.82 1.96zm12.728-1.68-1.9-5.76h-4.7l4.28 10.5c-.24.12-.48.16-.74.16-.42 0-1.18-.26-2-.72l-1.32 3.1c1.22.68 2.64 1.14 4.22 1.14 2.52 0 3.68-1.16 4.74-4.02l3.78-10.16h-4.62l-1.74 5.76z" fill="#fff"/><path d="M50.758 18.2h4.54v-4.44c.7.78 1.62 1.5 3.28 1.5 2.58 0 4.66-2.3 4.66-5.76v-.04c0-3.34-2.06-5.64-4.7-5.64-1.66 0-2.5.8-3.24 1.6V4.08h-4.54V18.2zm6.26-6.68c-1.04 0-1.82-.88-1.82-1.96v-.04c0-1.1.78-1.96 1.82-1.96s1.82.86 1.82 1.96v.04c0 1.1-.78 1.96-1.82 1.96zm7.216-8.22h4.7V.4h-4.7v2.9zm.08 11.7h4.54V4.08h-4.54V15zm5.936 3.2h4.54v-4.44c.7.78 1.62 1.5 3.28 1.5 2.58 0 4.66-2.3 4.66-5.76v-.04c0-3.34-2.06-5.64-4.7-5.64-1.66 0-2.5.8-3.24 1.6V4.08h-4.54V18.2zm6.26-6.68c-1.04 0-1.82-.88-1.82-1.96v-.04c0-1.1.78-1.96 1.82-1.96s1.82.86 1.82 1.96v.04c0 1.1-.78 1.96-1.82 1.96z" fill="#3ABF57"/></svg>