<svg width="45" height="40" viewBox="0 0 45 40" fill="none" xmlns="http://www.w3.org/2000/svg">
<path d="M24.5984 11.0235L25.4271 11.8969H22.2961V8.71591L23.057 9.59109C23.282 9.41248 23.4303 9.29817 23.5821 9.18386C24.5162 8.48372 25.5468 8.01041 26.7274 7.97826C28.0437 7.94432 29.1832 8.44085 30.1816 9.26066C31.1042 10.0016 31.7257 11.0529 31.9302 12.2184C31.9844 12.6786 31.9886 13.1433 31.9427 13.6044C31.8641 15.4762 30.3531 17.7249 27.624 18.1232C26.8935 18.2303 26.1594 18.3143 25.4414 18.075C24.6912 17.8373 24.0002 17.4427 23.4142 16.9176C21.2006 14.8934 18.9835 12.8775 16.7628 10.8699C16.4056 10.5377 16.0091 10.2198 15.5126 10.1162C14.023 9.80542 12.228 10.5413 11.7779 12.3809C11.631 13.0415 11.6832 13.7308 11.9279 14.3617C12.114 14.8911 12.4582 15.3506 12.9138 15.678C13.5408 16.1228 14.257 16.2139 14.9964 16.1764C15.6157 16.1578 16.2103 15.9291 16.6825 15.528C16.7789 15.4441 16.8789 15.3619 16.995 15.2655L16.1466 14.3635H16.2609H19.2312V17.4873C18.9615 17.2016 18.7097 16.9354 18.4453 16.6586C18.2774 16.8104 18.1185 16.964 17.9524 17.1033C16.127 18.6304 13.1639 18.7108 11.2439 16.8622C10.1222 15.7906 9.53815 14.4832 9.61853 12.9436C9.65899 11.8865 10.0234 10.8674 10.6623 10.0243C11.3013 9.18118 12.1839 8.55484 13.1907 8.2301C13.8765 8.0247 14.5892 8.05148 15.2965 8.06399C16.2677 8.08654 17.1999 8.45083 17.9291 9.09277C18.3864 9.47856 18.8025 9.91258 19.2473 10.3144C21.1822 12.0684 23.1189 13.8193 25.0574 15.5673C25.6772 16.1281 26.413 16.2407 27.215 16.1513C28.7028 15.987 29.6476 14.8689 29.8405 13.5598C29.9076 13.153 29.8893 12.7366 29.7867 12.3373C29.6841 11.938 29.4995 11.5644 29.2446 11.2403C28.9897 10.9162 28.6702 10.6488 28.3063 10.4549C27.9424 10.2611 27.5422 10.1451 27.131 10.1144C26.7035 10.053 26.2676 10.0879 25.8553 10.2168C25.443 10.3457 25.0648 10.5652 24.7484 10.8592C24.7109 10.8931 24.6734 10.9253 24.6394 10.961C24.6231 10.98 24.6093 11.001 24.5984 11.0235Z" fill="#17C1F2"/>
<path d="M29.042 25.3863L29.1134 26.3883C29.1634 26.3508 29.1974 26.3312 29.226 26.3061C31.4514 24.2932 35.8577 24.8166 36.8847 28.7691C37.3044 30.3856 37.124 31.9644 36.1416 33.3665C35.1932 34.7221 33.8572 35.3544 32.2033 35.3312C31.1317 35.3228 30.0968 34.94 29.2777 34.2488C29.2617 34.2363 29.242 34.2292 29.2027 34.206V40H26.395V25.3863H29.042ZM34.1805 30.2623C34.1593 30.0151 34.1236 29.7694 34.0734 29.5264C33.834 28.6227 33.2928 27.969 32.3766 27.7189C31.4603 27.4689 30.6066 27.6511 29.9261 28.3637C29.2974 29.0192 29.1384 29.8194 29.2367 30.6963C29.2762 31.0444 29.3893 31.3801 29.5685 31.681C29.7477 31.982 29.989 32.2413 30.2762 32.4419C30.5634 32.6424 30.89 32.7795 31.2343 32.8441C31.5786 32.9087 31.9326 32.8992 32.273 32.8164C33.4036 32.536 34.1484 31.5251 34.1805 30.2623Z" fill="#010101"/>
<path d="M10.3025 25.3809H12.9602C12.9834 25.7131 13.0049 26.0382 13.0281 26.3633C13.3211 26.1413 13.6258 25.935 13.9408 25.7453C16.4413 24.395 19.9813 25.3881 20.8225 28.8477C21.1922 30.3712 21.0368 31.859 20.1706 33.2022C19.2347 34.6525 17.8701 35.3455 16.1448 35.3312C15.0352 35.3253 13.9644 34.9223 13.1263 34.1952V40H10.3025V25.3809ZM18.0702 30.1944C18.0577 30.048 18.0523 29.9336 18.0398 29.8211C18.0315 29.7429 18.0178 29.6653 17.9987 29.5889C17.7773 28.6959 17.2664 28.0279 16.368 27.7457C15.4696 27.4635 14.6266 27.6082 13.9265 28.2815C13.2263 28.9549 13.0227 29.8318 13.1585 30.782C13.2154 31.1688 13.3635 31.5366 13.5905 31.8549C13.8175 32.1732 14.1169 32.4331 14.4641 32.6129C14.8112 32.7928 15.1962 32.8875 15.5871 32.8894C15.9781 32.8912 16.3639 32.8001 16.7128 32.6235C17.6897 32.1055 18.072 31.2321 18.0702 30.1944Z" fill="#010101"/>
<path d="M28.1693 6.99122C28.2568 6.56256 28.3479 6.1607 28.4229 5.75883C28.7337 4.29603 29.048 2.83502 29.357 1.37222C29.4234 0.981433 29.6285 0.627668 29.9345 0.375745C30.2406 0.123822 30.6271 -0.00938795 31.0234 0.000514949C35.3576 0.000514949 39.6912 0.000514949 44.0243 0.000514949C44.0725 0.000514949 44.1225 0.000514949 44.2029 0.000514949C44.1618 0.211272 44.1279 0.409526 44.085 0.60778C43.7278 2.28431 43.3706 3.96203 43.0133 5.64095C42.9408 6.0268 42.7329 6.37408 42.4271 6.6203C42.1212 6.86653 41.7376 6.99552 41.3451 6.98408H28.1693V6.99122ZM40.2163 1.57762C39.5858 1.58445 38.9827 1.83638 38.5346 2.28009C38.0866 2.7238 37.8288 3.32445 37.8159 3.95489C37.7964 4.30461 37.9093 4.64885 38.132 4.9192C38.3547 5.18954 38.6709 5.36622 39.0179 5.41412C39.3204 5.4724 39.6317 5.46642 39.9317 5.39657C40.2317 5.32672 40.5137 5.19456 40.7593 5.00867C41.107 4.7756 41.3856 4.45334 41.5659 4.07564C41.7463 3.69794 41.8218 3.2787 41.7845 2.86181C41.7274 2.08844 41.0969 1.57762 40.2163 1.57762ZM35.1689 3.97096C35.5529 3.91381 35.5511 3.91381 35.6708 4.24245C35.7904 4.57109 35.9083 4.89794 36.028 5.22301C36.0494 5.27837 36.1084 5.35875 36.153 5.36053C36.4049 5.37482 36.6567 5.36053 36.9335 5.36053C36.8282 5.07655 36.7353 4.82471 36.646 4.58359C36.5567 4.34247 36.4674 4.09242 36.3816 3.8388C36.5968 3.77352 36.7937 3.65874 36.9566 3.50366C37.1194 3.34858 37.2436 3.1575 37.3193 2.94576C37.5462 2.29027 37.2604 1.75265 36.5763 1.67764C36.0126 1.64305 35.4473 1.63888 34.8831 1.66514C34.6235 2.88324 34.3634 4.10849 34.1026 5.34089H34.8653C34.917 5.09798 34.9635 4.86758 35.0135 4.63717C35.0635 4.40677 35.1189 4.19422 35.1689 3.97096ZM31.3985 5.36232C31.4771 4.99617 31.561 4.64789 31.6253 4.29067C31.6521 4.13886 31.7146 4.09599 31.8646 4.09956C32.0928 4.10908 32.3214 4.10252 32.5487 4.07992C32.9006 4.0542 33.2328 3.90742 33.4887 3.66452C33.7446 3.42161 33.9085 3.09758 33.9526 2.7475C34.0169 2.21167 33.774 1.80802 33.2381 1.72765C32.6434 1.64013 32.0325 1.65442 31.4253 1.62406C31.1538 2.89753 30.8894 4.12457 30.6287 5.37482L31.3985 5.36232Z" fill="#17C0F1"/>
<path d="M31.9981 8.29618C32.9697 8.29618 33.9039 8.29618 34.838 8.29618C34.9023 8.29618 34.9898 8.38369 35.0166 8.45156C35.8763 10.2793 36.7312 12.1077 37.5814 13.9366L37.8261 14.451C37.9779 14.0938 38.1154 13.7687 38.2512 13.4436C38.9394 11.7826 39.6282 10.1215 40.3177 8.46049C40.348 8.39083 40.432 8.29618 40.4963 8.29618C41.4447 8.28546 42.3931 8.29618 43.3701 8.29618C43.1736 8.77306 42.9878 9.23029 42.7985 9.68753C40.9898 14.0456 39.1787 18.4024 37.3653 22.758C37.3349 22.8331 37.2438 22.9367 37.1867 22.9367C36.2454 22.9474 35.3041 22.9367 34.3289 22.9367C34.4683 22.5973 34.5969 22.2776 34.729 21.9597C35.3166 20.5415 35.9078 19.1252 36.4919 17.7052C36.5217 17.6169 36.5172 17.5207 36.4794 17.4355C35.3018 15.0208 34.12 12.6078 32.934 10.1966L31.9981 8.29618Z" fill="#010101"/>
<path d="M7.26092 14.9279L9.26133 16.8104C8.53513 17.4972 7.62469 17.9576 6.64116 18.1356C5.25873 18.3946 3.90667 18.2964 2.65463 17.6105C0.854264 16.6246 -0.0244863 15.0832 0.000518833 13.0275C0.0380265 10.318 2.16525 8.38366 4.64432 8.13897C6.07318 7.99608 7.42703 8.23184 8.64156 9.04808C8.85411 9.19097 9.04879 9.36065 9.27384 9.5339L7.26986 11.4146C7.03248 11.1158 6.72511 10.8802 6.37495 10.7285C6.0248 10.5767 5.64264 10.5137 5.2623 10.5448C4.69706 10.5723 4.15873 10.7945 3.73874 11.1738C3.31875 11.5531 3.04298 12.0661 2.95826 12.6256C2.81538 13.5686 2.98505 14.4277 3.68877 15.1261C3.91998 15.3516 4.19377 15.5287 4.49416 15.6472C4.79455 15.7658 5.11554 15.8233 5.4384 15.8165C5.76126 15.8097 6.07953 15.7386 6.37465 15.6075C6.66978 15.4764 6.93584 15.2879 7.15733 15.0529C7.19484 15.0172 7.22342 14.9761 7.26092 14.9279Z" fill="#010101"/>
<path d="M23.7981 37.028H23.2355V35.5044H22.1281V25.3238H23.2265V23.7806H23.7891V25.3113H24.8929V35.4919H23.8016L23.7981 37.028Z" fill="#16C0F2"/>
<path d="M22.2908 17.0908C22.648 17.4159 22.9713 17.7373 23.3213 18.0213C23.6714 18.3053 24.0768 18.5768 24.4501 18.859C24.5216 18.9058 24.5726 18.9779 24.593 19.0608C24.593 20.3236 24.593 21.5863 24.593 22.8491C24.5896 22.8739 24.5843 22.8984 24.5769 22.9223H22.2908V17.0908Z" fill="#16C0F2"/>
<path d="M40.2163 1.57764C41.0968 1.57764 41.7327 2.08845 41.7845 2.85468C41.8224 3.27215 41.7472 3.69214 41.5668 4.07053C41.3865 4.44891 41.1075 4.77175 40.7593 5.00512C40.5137 5.19101 40.2317 5.32317 39.9317 5.39302C39.6317 5.46287 39.3203 5.46884 39.0178 5.41056C38.6709 5.36266 38.3546 5.18599 38.1319 4.91564C37.9092 4.64529 37.7964 4.30106 37.8158 3.95134C37.8297 3.32152 38.0879 2.72177 38.5358 2.27882C38.9838 1.83588 39.5864 1.58444 40.2163 1.57764V1.57764ZM38.6088 3.8138C38.6088 4.45679 39.0553 4.85509 39.6805 4.76757C40.0489 4.70486 40.3834 4.51403 40.6249 4.22876C40.8664 3.94348 40.9994 3.58209 41.0004 3.20833C41.0117 3.06301 40.9878 2.9171 40.9308 2.78296C40.8738 2.64881 40.7853 2.53038 40.6728 2.43769C40.5603 2.345 40.4271 2.28078 40.2846 2.25046C40.142 2.22013 39.9942 2.2246 39.8537 2.26349C39.5009 2.34162 39.1853 2.5379 38.9593 2.81983C38.7332 3.10176 38.6102 3.45243 38.6106 3.8138H38.6088Z" fill="#020202"/>
<path d="M35.1688 3.97102C35.1188 4.19428 35.0688 4.42112 35.0206 4.64974C34.9724 4.87835 34.9241 5.11054 34.8723 5.35345H34.1097C34.3704 4.12344 34.6306 2.89819 34.8902 1.6777C35.4544 1.65144 36.0196 1.65562 36.5834 1.6902C37.2675 1.76522 37.5532 2.30283 37.3264 2.95832C37.2507 3.17007 37.1265 3.36114 36.9636 3.51622C36.8008 3.6713 36.6039 3.78608 36.3887 3.85136C36.478 4.10498 36.5673 4.35146 36.6531 4.59615C36.7388 4.84084 36.8317 5.08911 36.9406 5.3731C36.6638 5.3731 36.4048 5.3731 36.1601 5.3731C36.1154 5.3731 36.0565 5.29094 36.0351 5.23557C35.9083 4.9105 35.7904 4.58186 35.6779 4.25501C35.5653 3.92816 35.5528 3.91387 35.1688 3.97102ZM35.2974 3.34411C35.4134 3.35229 35.5298 3.35229 35.6457 3.34411C35.9136 3.30125 36.1994 3.30482 36.4191 3.10299C36.492 3.04539 36.5474 2.96853 36.579 2.88111C36.6105 2.79368 36.617 2.69916 36.5977 2.60824C36.5762 2.52508 36.5281 2.45123 36.4607 2.39801C36.3933 2.34478 36.3103 2.31511 36.2244 2.31354C36.0851 2.29211 35.9404 2.29747 35.8011 2.27782C35.5957 2.24746 35.4814 2.30104 35.4564 2.53502C35.426 2.79757 35.3546 3.05834 35.2974 3.34411Z" fill="#020303"/>
<path d="M31.3984 5.36234H30.6375C30.9019 4.12101 31.1626 2.89219 31.4341 1.61157C32.0414 1.64194 32.6522 1.62764 33.247 1.71516C33.7828 1.79554 34.0168 2.20098 33.9614 2.73502C33.9174 3.0851 33.7534 3.40913 33.4975 3.65203C33.2416 3.89493 32.9094 4.04171 32.5575 4.06743C32.3303 4.09003 32.1017 4.0966 31.8735 4.08707C31.7234 4.08707 31.6609 4.12637 31.6341 4.27819C31.5609 4.6479 31.477 5.00512 31.3984 5.36234ZM31.7931 3.47088C31.9971 3.48346 32.2017 3.48346 32.4057 3.47088C32.5625 3.46586 32.7146 3.41565 32.8435 3.3263C32.9725 3.23695 33.0729 3.11226 33.1327 2.96721C33.1658 2.90522 33.1835 2.83617 33.1843 2.76588C33.1851 2.6956 33.169 2.62616 33.1373 2.56344C33.1056 2.50071 33.0592 2.44655 33.0021 2.40553C32.9451 2.36451 32.8789 2.33785 32.8094 2.32779C32.5857 2.29167 32.3589 2.27791 32.1325 2.28671C32.0949 2.28671 32.0342 2.35458 32.0235 2.40102C31.9431 2.74038 31.8735 3.08687 31.7931 3.47088Z" fill="#030303"/>
<path d="M38.6106 3.81379C38.6106 3.45143 38.7346 3.09999 38.9621 2.81792C39.1895 2.53586 39.5067 2.34019 39.8609 2.26348C40.0014 2.22459 40.1491 2.22012 40.2917 2.25044C40.4343 2.28077 40.5675 2.34499 40.6799 2.43768C40.7924 2.53037 40.8809 2.6488 40.938 2.78294C40.995 2.91708 41.0189 3.06299 41.0075 3.20831C41.0065 3.58207 40.8736 3.94347 40.6321 4.22875C40.3906 4.51402 40.0561 4.70485 39.6876 4.76756C39.0571 4.85508 38.607 4.45678 38.6106 3.81379Z" fill="#18BEEF"/>
<path d="M35.2975 3.34407C35.3546 3.0583 35.4261 2.79753 35.4547 2.53319C35.4797 2.29921 35.594 2.24563 35.7994 2.27599C35.9387 2.29564 36.0833 2.29028 36.2227 2.31171C36.3085 2.31328 36.3915 2.34295 36.459 2.39617C36.5264 2.4494 36.5745 2.52325 36.5959 2.60642C36.6153 2.69733 36.6088 2.79184 36.5772 2.87927C36.5457 2.9667 36.4903 3.04356 36.4173 3.10116C36.1977 3.30299 35.9119 3.29941 35.644 3.34228C35.5287 3.35097 35.4129 3.35157 35.2975 3.34407V3.34407Z" fill="#1BBCEC"/>
<path d="M31.7932 3.47082C31.8736 3.08682 31.9432 2.74032 32.0236 2.39918C32.0343 2.35274 32.0951 2.28486 32.1326 2.28486C32.359 2.27606 32.5858 2.28983 32.8095 2.32595C32.8791 2.336 32.9452 2.36267 33.0022 2.40369C33.0593 2.44471 33.1057 2.49887 33.1374 2.56159C33.1691 2.62432 33.1852 2.69376 33.1844 2.76404C33.1836 2.83433 33.1659 2.90338 33.1328 2.96536C33.073 3.11041 32.9726 3.23511 32.8436 3.32446C32.7147 3.41381 32.5626 3.46401 32.4058 3.46903C32.2019 3.48221 31.9973 3.48281 31.7932 3.47082V3.47082Z" fill="#1CBCEB"/>
</svg>
