<svg width="167" height="34" viewBox="0 0 167 34" fill="none" xmlns="http://www.w3.org/2000/svg">
<g clip-path="url(#clip0_2925_805)">
<path d="M46.1011 11.6659L47.6543 13.3028H41.7862V7.34097L43.2122 8.98122C43.634 8.64648 43.9118 8.43224 44.1964 8.218C45.9471 6.90581 47.8786 6.01873 50.0912 5.95848C52.5583 5.89488 54.694 6.82546 56.5652 8.36194C58.2942 9.75069 59.459 11.721 59.8423 13.9053C59.944 14.7678 59.9518 15.6388 59.8658 16.5029C59.7185 20.0111 56.8865 24.2255 51.7717 24.972C50.4025 25.1728 49.0267 25.3301 47.6811 24.8816C46.2752 24.4361 44.9801 23.6967 43.8817 22.7124C39.7331 18.9187 35.5778 15.1405 31.4158 11.378C30.7463 10.7554 30.0032 10.1595 29.0726 9.96537C26.2808 9.38291 22.9167 10.7621 22.0731 14.2099C21.7977 15.448 21.8956 16.7398 22.3543 17.9222C22.7031 18.9144 23.3481 19.7756 24.2021 20.3893C25.377 21.2228 26.7194 21.3935 28.1052 21.3232C29.2659 21.2884 30.3802 20.8599 31.2652 20.1081C31.446 19.9508 31.6334 19.7968 31.851 19.6161L30.261 17.9256H30.4752H36.042V23.7803C35.5365 23.2447 35.0645 22.7459 34.5691 22.2271C34.2545 22.5116 33.9565 22.7995 33.6452 23.0606C30.2241 25.9226 24.6707 26.0733 21.0722 22.6087C18.97 20.6002 17.8754 18.1499 18.026 15.2644C18.1019 13.2832 18.7848 11.3732 19.9823 9.79309C21.1798 8.21298 22.8341 7.03911 24.7209 6.43047C26.0064 6.04551 27.342 6.09572 28.6676 6.11915C30.4879 6.16143 32.235 6.84416 33.6017 8.04728C34.4587 8.77033 35.2386 9.58376 36.0721 10.3369C39.6985 13.6241 43.3283 16.9057 46.9614 20.1818C48.1229 21.2329 49.5021 21.4438 51.0051 21.2764C53.7935 20.9684 55.5643 18.8729 55.9258 16.4192C56.0516 15.6568 56.0172 14.8766 55.8249 14.1282C55.6327 13.3798 55.2867 12.6796 54.809 12.0722C54.3313 11.4648 53.7325 10.9635 53.0505 10.6002C52.3685 10.2369 51.6183 10.0196 50.8478 9.96202C50.0464 9.84685 49.2295 9.91243 48.4568 10.154C47.6842 10.3955 46.9753 10.8069 46.3823 11.3579C46.312 11.4215 46.2417 11.4818 46.1781 11.5487C46.1475 11.5843 46.1217 11.6237 46.1011 11.6659Z" fill="#17C1F2"/>
<path d="M118.429 6.58444L118.563 8.46235C118.657 8.39206 118.721 8.35524 118.774 8.30837C122.945 4.5358 131.203 5.51661 133.128 12.9245C133.915 15.9539 133.576 18.9131 131.735 21.5408C129.958 24.0815 127.454 25.2665 124.354 25.223C122.346 25.2074 120.406 24.4897 118.871 23.1945C118.841 23.171 118.804 23.1576 118.731 23.1141V33.9732H113.468V6.58444H118.429ZM128.06 15.723C128.02 15.2597 127.953 14.7992 127.859 14.3438C127.41 12.65 126.396 11.4248 124.679 10.9562C122.962 10.4876 121.362 10.829 120.086 12.1646C118.908 13.3931 118.61 14.8928 118.794 16.5364C118.868 17.1887 119.08 17.8178 119.416 18.3819C119.752 18.946 120.204 19.4321 120.742 19.8079C121.281 20.1837 121.893 20.4407 122.538 20.5617C123.183 20.6828 123.847 20.6651 124.485 20.5098C126.604 19.9843 128 18.0896 128.06 15.723Z" fill="#010101"/>
<path d="M83.3079 6.57439H88.2889C88.3324 7.19701 88.3725 7.80625 88.4161 8.41548C88.9653 7.99937 89.5363 7.61275 90.1266 7.25727C94.813 4.7266 101.448 6.58778 103.024 13.0718C103.717 15.9272 103.426 18.7156 101.802 21.2329C100.048 23.951 97.491 25.2498 94.2573 25.223C92.1778 25.212 90.171 24.4568 88.6002 23.094V33.9732H83.3079V6.57439ZM97.8659 15.5957C97.8425 15.3213 97.8324 15.107 97.809 14.8961C97.7934 14.7495 97.7676 14.6041 97.732 14.461C97.3169 12.7872 96.3595 11.5353 94.6758 11.0064C92.992 10.4775 91.412 10.7487 90.0998 12.0106C88.7876 13.2726 88.406 14.9162 88.6604 16.6971C88.7671 17.422 89.0447 18.1112 89.4701 18.7078C89.8956 19.3044 90.4567 19.7914 91.1074 20.1285C91.758 20.4655 92.4795 20.6431 93.2122 20.6466C93.945 20.65 94.6681 20.4792 95.3218 20.1483C97.1529 19.1775 97.8692 17.5406 97.8659 15.5957Z" fill="#010101"/>
<path d="M136.793 13.1086C136.957 12.3052 137.128 11.552 137.269 10.7989C137.851 8.05731 138.44 5.3191 139.019 2.57754C139.144 1.84513 139.528 1.18211 140.102 0.709954C140.675 0.237803 141.4 -0.0118575 142.143 0.00670242C150.266 0.00670242 158.388 0.00670242 166.509 0.00670242C166.599 0.00670242 166.693 0.00670242 166.843 0.00670242C166.766 0.401701 166.703 0.773265 166.622 1.14483C165.953 4.28697 165.283 7.43133 164.614 10.5779C164.478 11.3011 164.088 11.952 163.515 12.4134C162.942 12.8749 162.223 13.1167 161.487 13.0952H136.793V13.1086ZM159.372 2.96249C158.19 2.97529 157.06 3.44746 156.22 4.27906C155.38 5.11065 154.897 6.23638 154.873 7.41794C154.836 8.07339 155.048 8.71855 155.465 9.22523C155.883 9.73192 156.475 10.063 157.126 10.1528C157.693 10.262 158.276 10.2508 158.838 10.1199C159.401 9.98901 159.929 9.74132 160.389 9.39293C161.041 8.95611 161.563 8.35214 161.901 7.64426C162.239 6.93638 162.381 6.15064 162.311 5.36931C162.204 3.91986 161.022 2.96249 159.372 2.96249ZM149.912 7.44807C150.632 7.34095 150.628 7.34095 150.853 7.95688C151.077 8.57281 151.298 9.18539 151.522 9.79463C151.562 9.8984 151.673 10.049 151.756 10.0524C152.228 10.0792 152.7 10.0524 153.219 10.0524C153.022 9.52013 152.848 9.04815 152.68 8.59625C152.513 8.14434 152.346 7.6757 152.185 7.20036C152.588 7.07802 152.957 6.86291 153.262 6.57225C153.568 6.2816 153.8 5.92349 153.942 5.52664C154.367 4.29812 153.832 3.29054 152.55 3.14995C151.493 3.08512 150.434 3.0773 149.376 3.12651C148.89 5.40947 148.402 7.70582 147.914 10.0156H149.343C149.44 9.56031 149.527 9.12849 149.621 8.69667C149.714 8.26485 149.818 7.8665 149.912 7.44807ZM142.846 10.0557C142.993 9.3695 143.15 8.71675 143.271 8.04726C143.321 7.76273 143.438 7.68239 143.719 7.68908C144.147 7.70693 144.575 7.69463 145.001 7.65227C145.661 7.60407 146.283 7.32897 146.763 6.87373C147.243 6.41848 147.55 5.81119 147.632 5.15506C147.753 4.15083 147.298 3.39431 146.293 3.24368C145.179 3.07965 144.034 3.10644 142.896 3.04953C142.387 5.43626 141.891 7.73595 141.403 10.0792L142.846 10.0557Z" fill="#17C0F1"/>
<path d="M59.9695 6.55431C61.7905 6.55431 63.5412 6.55431 65.2919 6.55431C65.4124 6.55431 65.5765 6.71833 65.6267 6.84553C67.2379 10.2711 68.8402 13.6977 70.4336 17.1255L70.8922 18.0896C71.1767 17.4201 71.4345 16.8109 71.6889 16.2016C72.9788 13.0885 74.2698 9.97539 75.5619 6.86227C75.6188 6.73172 75.7761 6.55431 75.8966 6.55431C77.6741 6.53422 79.4516 6.55431 81.2827 6.55431C80.9145 7.44807 80.5663 8.30501 80.2115 9.16196C76.8216 17.3297 73.4273 25.4953 70.0286 33.6586C69.9717 33.7992 69.8009 33.9933 69.6938 33.9933C67.9297 34.0134 66.1656 33.9933 64.3379 33.9933C64.599 33.3573 64.84 32.7581 65.0877 32.1623C66.189 29.5044 67.297 26.8499 68.3917 24.1886C68.4475 24.0232 68.4391 23.8428 68.3682 23.6832C66.1611 19.1574 63.9462 14.635 61.7235 10.116L59.9695 6.55431Z" fill="#010101"/>
<path d="M13.6074 18.9833L17.3565 22.5115C15.9955 23.7987 14.2891 24.6617 12.4458 24.9954C9.85487 25.4807 7.32086 25.2966 4.9743 24.0112C1.60007 22.1634 -0.0468684 19.2746 -4.17226e-06 15.4217C0.0702922 10.3436 4.0571 6.7183 8.70335 6.2597C11.3813 5.99191 13.9187 6.43377 16.1949 7.96355C16.5933 8.23135 16.9581 8.54936 17.3799 8.87406L13.6241 12.3989C13.1792 11.8389 12.6031 11.3972 11.9469 11.1129C11.2906 10.8285 10.5744 10.7103 9.86157 10.7687C8.80219 10.8202 7.79327 11.2367 7.00612 11.9475C6.21898 12.6584 5.70214 13.6198 5.54336 14.6685C5.27557 16.4359 5.59357 18.0461 6.91247 19.3549C7.3458 19.7774 7.85893 20.1095 8.42192 20.3316C8.98491 20.5538 9.5865 20.6616 10.1916 20.6488C10.7967 20.636 11.3932 20.5029 11.9463 20.2572C12.4994 20.0115 12.9981 19.6581 13.4132 19.2177C13.4835 19.1507 13.5371 19.0737 13.6074 18.9833Z" fill="#010101"/>
<path d="M108.601 28.4031H107.547V25.5477H105.471V6.46726H107.53V3.57507H108.584V6.44383H110.653V25.5243H108.608L108.601 28.4031Z" fill="#16C0F2"/>
<path d="M41.7761 23.0371C42.4456 23.6463 43.0514 24.2489 43.7075 24.7811C44.3636 25.3134 45.1235 25.8222 45.8231 26.3511C45.957 26.4388 46.0527 26.5739 46.0909 26.7293C46.0909 29.096 46.0909 31.4626 46.0909 33.8293C46.0846 33.8758 46.0745 33.9216 46.0608 33.9665H41.7761V23.0371Z" fill="#16C0F2"/>
<path d="M159.372 2.96249C161.022 2.96249 162.214 3.91986 162.311 5.35592C162.382 6.13833 162.241 6.92546 161.903 7.63464C161.565 8.34381 161.042 8.94886 160.389 9.38624C159.929 9.73463 159.401 9.98233 158.838 10.1132C158.276 10.2441 157.693 10.2553 157.126 10.1461C156.475 10.0563 155.883 9.72523 155.465 9.21854C155.048 8.71186 154.836 8.0667 154.873 7.41125C154.899 6.23086 155.383 5.10681 156.222 4.27665C157.062 3.44648 158.191 2.97524 159.372 2.96249V2.96249ZM156.359 7.15349C156.359 8.35857 157.196 9.10506 158.368 8.94104C159.058 8.8235 159.685 8.46585 160.138 7.93119C160.59 7.39653 160.839 6.71921 160.841 6.01871C160.863 5.74635 160.818 5.4729 160.711 5.22149C160.604 4.97008 160.438 4.74812 160.227 4.5744C160.017 4.40068 159.767 4.28032 159.5 4.22349C159.233 4.16665 158.956 4.17503 158.692 4.24791C158.031 4.39435 157.44 4.76221 157.016 5.2906C156.592 5.81899 156.362 6.47622 156.362 7.15349H156.359Z" fill="#020202"/>
<path d="M149.912 7.44807C149.818 7.8665 149.725 8.29163 149.634 8.72011C149.544 9.14858 149.453 9.58375 149.356 10.039H147.927C148.416 7.73373 148.903 5.43737 149.39 3.14995C150.447 3.10074 151.507 3.10856 152.563 3.17339C153.845 3.31398 154.381 4.32156 153.956 5.55008C153.814 5.94693 153.581 6.30503 153.276 6.59568C152.971 6.88634 152.602 7.10146 152.198 7.2238C152.366 7.69914 152.533 8.16108 152.694 8.61968C152.854 9.07828 153.028 9.54357 153.233 10.0758C152.714 10.0758 152.228 10.0758 151.77 10.0758C151.686 10.0758 151.576 9.92184 151.535 9.81807C151.298 9.20883 151.077 8.5929 150.866 7.98031C150.655 7.36773 150.632 7.34095 149.912 7.44807ZM150.153 6.27313C150.37 6.28845 150.588 6.28845 150.806 6.27313C151.308 6.19279 151.843 6.19948 152.255 5.82122C152.392 5.71326 152.496 5.56922 152.555 5.40536C152.614 5.24151 152.626 5.06437 152.59 4.89397C152.55 4.73809 152.46 4.59969 152.333 4.49994C152.207 4.40019 152.051 4.34459 151.89 4.34164C151.629 4.30147 151.358 4.31152 151.097 4.2747C150.712 4.21779 150.498 4.31822 150.451 4.75673C150.394 5.24881 150.26 5.73753 150.153 6.27313Z" fill="#020303"/>
<path d="M142.846 10.0557H141.42C141.915 7.72925 142.404 5.42621 142.913 3.02609C144.051 3.083 145.195 3.05622 146.31 3.22024C147.314 3.37087 147.753 4.13075 147.649 5.13164C147.567 5.78776 147.259 6.39505 146.78 6.85029C146.3 7.30553 145.678 7.58063 145.018 7.62883C144.592 7.67119 144.164 7.68349 143.736 7.66565C143.455 7.66565 143.338 7.73929 143.287 8.02383C143.15 8.71675 142.993 9.38624 142.846 10.0557ZM143.585 6.51078C143.968 6.53436 144.351 6.53436 144.734 6.51078C145.027 6.50137 145.312 6.40728 145.554 6.23982C145.796 6.07235 145.984 5.83865 146.096 5.5668C146.158 5.45063 146.191 5.32121 146.193 5.18949C146.194 5.05777 146.164 4.92762 146.105 4.81006C146.045 4.6925 145.958 4.59099 145.851 4.51412C145.744 4.43724 145.62 4.38727 145.49 4.36842C145.071 4.30073 144.646 4.27493 144.221 4.29143C144.151 4.29143 144.037 4.41863 144.017 4.50567C143.867 5.14168 143.736 5.79108 143.585 6.51078Z" fill="#030303"/>
<path d="M156.362 7.15349C156.362 6.47437 156.595 5.81569 157.021 5.28705C157.447 4.75841 158.042 4.39169 158.706 4.24791C158.969 4.17503 159.246 4.16666 159.513 4.22349C159.78 4.28032 160.03 4.40068 160.241 4.5744C160.452 4.74812 160.617 4.97008 160.724 5.22149C160.831 5.4729 160.876 5.74636 160.855 6.01871C160.853 6.71921 160.604 7.39654 160.151 7.9312C159.698 8.46586 159.072 8.8235 158.381 8.94104C157.199 9.10506 156.356 8.35857 156.362 7.15349Z" fill="#18BEEF"/>
<path d="M150.153 6.27312C150.26 5.73753 150.394 5.2488 150.448 4.75338C150.494 4.31486 150.709 4.21444 151.094 4.27134C151.355 4.30816 151.626 4.29813 151.887 4.3383C152.048 4.34124 152.203 4.39684 152.33 4.49659C152.456 4.59634 152.546 4.73475 152.587 4.89062C152.623 5.06102 152.611 5.23815 152.551 5.402C152.492 5.56586 152.389 5.7099 152.252 5.81786C151.84 6.19612 151.304 6.18943 150.802 6.26977C150.586 6.28605 150.369 6.28717 150.153 6.27312V6.27312Z" fill="#1BBCEC"/>
<path d="M143.585 6.5108C143.736 5.7911 143.867 5.1417 144.017 4.50233C144.037 4.4153 144.151 4.28809 144.221 4.28809C144.646 4.2716 145.071 4.29739 145.49 4.36509C145.62 4.38394 145.744 4.43392 145.851 4.51079C145.958 4.58767 146.045 4.68918 146.105 4.80674C146.164 4.9243 146.194 5.05444 146.193 5.18616C146.191 5.31789 146.158 5.4473 146.096 5.56347C145.984 5.83532 145.796 6.06903 145.554 6.23649C145.312 6.40395 145.027 6.49804 144.733 6.50745C144.351 6.53214 143.968 6.53326 143.585 6.5108V6.5108Z" fill="#1CBCEB"/>
</g>
<defs>
<clipPath id="clip0_2925_805">
<rect width="166.847" height="34" fill="white"/>
</clipPath>
</defs>
</svg>
