<svg width="25" height="16" fill="none" xmlns="http://www.w3.org/2000/svg"><path d="M6.08 12.28c2.6 0 4.26-1.16 5.24-2.98l-3.3-1.88c-.44.7-.9 1.1-1.7 1.1-.9 0-1.62-.82-1.62-1.96v-.04c0-1.08.72-1.92 1.68-1.92.74 0 1.22.4 1.6 1.1l3.26-1.84C10.4 2.08 8.7.84 6.3.84 2.74.84.34 3.5.34 6.56v.04c0 3.06 2.42 5.68 5.74 5.68z" fill="#fff"/><path d="M12.028 15.2h4.54v-4.44c.7.78 1.62 1.5 3.28 1.5 2.58 0 4.66-2.3 4.66-5.76v-.04c0-3.34-2.06-5.64-4.7-5.64-1.66 0-2.5.8-3.24 1.6V1.08h-4.54V15.2zm6.26-6.68c-1.04 0-1.82-.88-1.82-1.96v-.04c0-1.1.78-1.96 1.82-1.96s1.82.86 1.82 1.96v.04c0 1.1-.78 1.96-1.82 1.96z" fill="#3ABF57"/></svg>