<svg width="167" height="34" viewBox="0 0 167 34" fill="none" xmlns="http://www.w3.org/2000/svg">
<g clip-path="url(#clip0_2952_316)">
<path d="M46.101 11.6658L47.6543 13.3027H41.7862V7.34088L43.2122 8.98113C43.634 8.64638 43.9118 8.43215 44.1963 8.21791C45.9471 6.90571 47.8785 6.01864 50.0912 5.95839C52.5583 5.89479 54.6939 6.82537 56.5652 8.36185C58.2942 9.7506 59.459 11.7209 59.8423 13.9052C59.9439 14.7677 59.9518 15.6387 59.8657 16.5028C59.7185 20.011 56.8865 24.2254 51.7716 24.9719C50.4025 25.1727 49.0267 25.3301 47.681 24.8815C46.2751 24.436 44.98 23.6966 43.8817 22.7123C39.7331 18.9186 35.5778 15.1404 31.4158 11.3779C30.7463 10.7553 30.0032 10.1594 29.0726 9.96528C26.2808 9.38282 22.9166 10.762 22.0731 14.2098C21.7977 15.4479 21.8956 16.7397 22.3543 17.9222C22.703 18.9143 23.348 19.7755 24.2021 20.3892C25.377 21.2227 26.7193 21.3935 28.1052 21.3232C29.2658 21.2883 30.3802 20.8598 31.2652 20.108C31.4459 19.9507 31.6334 19.7967 31.851 19.616L30.2609 17.9255H30.4752H36.042V23.7802C35.5365 23.2446 35.0645 22.7458 34.5691 22.227C34.2544 22.5115 33.9565 22.7994 33.6452 23.0605C30.2241 25.9225 24.6707 26.0732 21.0722 22.6086C18.97 20.6001 17.8754 18.1498 18.026 15.2643C18.1019 13.2831 18.7848 11.3731 19.9823 9.793C21.1798 8.21289 22.834 7.03902 24.7209 6.43038C26.0063 6.04542 27.342 6.09563 28.6675 6.11906C30.4879 6.16133 32.235 6.84407 33.6017 8.04719C34.4586 8.77024 35.2386 9.58367 36.0721 10.3368C39.6985 13.624 43.3282 16.9056 46.9613 20.1817C48.1229 21.2328 49.502 21.4437 51.0051 21.2763C53.7935 20.9683 55.5643 18.8728 55.9258 16.4192C56.0515 15.6567 56.0172 14.8765 55.8249 14.1281C55.6326 13.3797 55.2866 12.6795 54.809 12.0721C54.3313 11.4647 53.7324 10.9634 53.0504 10.6001C52.3685 10.2368 51.6183 10.0195 50.8477 9.96193C50.0464 9.84676 49.2295 9.91234 48.4568 10.1539C47.6841 10.3954 46.9753 10.8068 46.3822 11.3578C46.3119 11.4214 46.2416 11.4817 46.178 11.5486C46.1475 11.5842 46.1216 11.6236 46.101 11.6658Z" fill="#17C1F2"/>
<path d="M118.429 6.58444L118.563 8.46235C118.657 8.39206 118.721 8.35524 118.774 8.30837C122.945 4.5358 131.203 5.51661 133.128 12.9245C133.915 15.9539 133.576 18.9131 131.735 21.5408C129.958 24.0815 127.454 25.2665 124.354 25.223C122.346 25.2074 120.406 24.4897 118.871 23.1945C118.841 23.171 118.804 23.1576 118.731 23.1141V33.9732H113.468V6.58444H118.429ZM128.06 15.723C128.02 15.2597 127.953 14.7992 127.859 14.3438C127.41 12.65 126.396 11.4248 124.679 10.9562C122.962 10.4876 121.362 10.829 120.086 12.1646C118.908 13.3931 118.61 14.8928 118.794 16.5364C118.868 17.1887 119.08 17.8178 119.416 18.3819C119.752 18.946 120.204 19.4321 120.742 19.8079C121.281 20.1837 121.893 20.4407 122.538 20.5617C123.183 20.6828 123.847 20.6651 124.485 20.5098C126.604 19.9843 128 18.0896 128.06 15.723Z" fill="white"/>
<path d="M83.3079 6.57451H88.2889C88.3324 7.19714 88.3725 7.80637 88.4161 8.41561C88.9653 7.99949 89.5363 7.61287 90.1266 7.25739C94.813 4.72672 101.448 6.5879 103.024 13.0719C103.717 15.9273 103.426 18.7157 101.802 21.233C100.048 23.9511 97.491 25.2499 94.2573 25.2231C92.1778 25.2121 90.171 24.4569 88.6002 23.0942V33.9734H83.3079V6.57451ZM97.8659 15.5959C97.8425 15.3214 97.8324 15.1071 97.809 14.8963C97.7934 14.7496 97.7676 14.6042 97.732 14.4611C97.3169 12.7874 96.3595 11.5354 94.6758 11.0065C92.992 10.4776 91.412 10.7488 90.0998 12.0108C88.7876 13.2727 88.406 14.9163 88.6604 16.6972C88.7671 17.4221 89.0447 18.1113 89.4701 18.708C89.8956 19.3046 90.4567 19.7915 91.1074 20.1286C91.758 20.4657 92.4795 20.6433 93.2122 20.6467C93.945 20.6502 94.6681 20.4794 95.3218 20.1484C97.1529 19.1776 97.8692 17.5407 97.8659 15.5959Z" fill="white"/>
<path d="M136.793 13.1085C136.957 12.3051 137.128 11.5519 137.269 10.7987C137.851 8.05718 138.44 5.31897 139.019 2.57742C139.144 1.84501 139.528 1.18198 140.102 0.709832C140.675 0.237681 141.4 -0.0119795 142.143 0.00658035C150.266 0.00658035 158.388 0.00658035 166.509 0.00658035C166.599 0.00658035 166.693 0.00658035 166.843 0.00658035C166.766 0.401579 166.703 0.773143 166.622 1.14471C165.953 4.28684 165.283 7.43121 164.614 10.5778C164.478 11.301 164.088 11.9518 163.515 12.4133C162.942 12.8748 162.223 13.1165 161.487 13.0951H136.793V13.1085ZM159.372 2.96237C158.19 2.97516 157.06 3.44734 156.22 4.27893C155.38 5.11053 154.897 6.23626 154.873 7.41782C154.836 8.07326 155.048 8.71843 155.465 9.22511C155.883 9.73179 156.475 10.0629 157.126 10.1527C157.693 10.2619 158.276 10.2507 158.838 10.1198C159.401 9.98889 159.929 9.7412 160.389 9.39281C161.041 8.95599 161.563 8.35201 161.901 7.64413C162.239 6.93626 162.381 6.15052 162.311 5.36918C162.204 3.91974 161.022 2.96237 159.372 2.96237ZM149.912 7.44794C150.632 7.34083 150.628 7.34083 150.853 7.95676C151.077 8.57269 151.298 9.18527 151.522 9.79451C151.562 9.89828 151.673 10.0489 151.756 10.0523C152.228 10.079 152.7 10.0523 153.219 10.0523C153.022 9.52001 152.848 9.04803 152.68 8.59613C152.513 8.14422 152.346 7.67557 152.185 7.20024C152.588 7.0779 152.957 6.86278 153.262 6.57213C153.568 6.28148 153.8 5.92337 153.942 5.52651C154.367 4.298 153.832 3.29042 152.55 3.14983C151.493 3.085 150.434 3.07718 149.376 3.12639C148.89 5.40935 148.402 7.7057 147.914 10.0154H149.343C149.44 9.56019 149.527 9.12837 149.621 8.69655C149.714 8.26472 149.818 7.86638 149.912 7.44794ZM142.846 10.0556C142.993 9.36938 143.15 8.71663 143.271 8.04714C143.321 7.76261 143.438 7.68227 143.719 7.68896C144.147 7.70681 144.575 7.69451 145.001 7.65214C145.661 7.60395 146.283 7.32885 146.763 6.8736C147.243 6.41836 147.55 5.81107 147.632 5.15494C147.753 4.15071 147.298 3.39419 146.293 3.24355C145.179 3.07953 144.034 3.10631 142.896 3.04941C142.387 5.43614 141.891 7.73583 141.403 10.079L142.846 10.0556Z" fill="#17C0F1"/>
<path d="M59.9695 6.55434C61.7905 6.55434 63.5412 6.55434 65.2919 6.55434C65.4124 6.55434 65.5764 6.71836 65.6266 6.84556C67.2379 10.2711 68.8402 13.6978 70.4336 17.1256L70.8922 18.0896C71.1767 17.4201 71.4345 16.8109 71.6889 16.2017C72.9787 13.0885 74.2697 9.97542 75.5619 6.8623C75.6188 6.73175 75.7761 6.55434 75.8966 6.55434C77.6741 6.53425 79.4516 6.55434 81.2826 6.55434C80.9144 7.4481 80.5663 8.30504 80.2115 9.16199C76.8216 17.3298 73.4273 25.4953 70.0285 33.6586C69.9716 33.7992 69.8009 33.9933 69.6938 33.9933C67.9297 34.0134 66.1656 33.9933 64.3379 33.9933C64.599 33.3573 64.84 32.7581 65.0877 32.1623C66.189 29.5044 67.297 26.8499 68.3916 24.1887C68.4475 24.0232 68.4391 23.8428 68.3682 23.6832C66.1611 19.1575 63.9462 14.6351 61.7235 10.116L59.9695 6.55434Z" fill="white"/>
<path d="M13.6074 18.9833L17.3565 22.5115C15.9955 23.7987 14.2891 24.6617 12.4458 24.9954C9.85487 25.4807 7.32086 25.2966 4.9743 24.0112C1.60007 22.1634 -0.0468684 19.2746 -4.17227e-06 15.4217C0.0702922 10.3436 4.0571 6.7183 8.70335 6.2597C11.3813 5.99191 13.9187 6.43377 16.1949 7.96355C16.5933 8.23135 16.9581 8.54936 17.3799 8.87406L13.6241 12.3989C13.1792 11.8389 12.6031 11.3972 11.9469 11.1129C11.2906 10.8285 10.5744 10.7103 9.86157 10.7687C8.80219 10.8202 7.79327 11.2367 7.00612 11.9475C6.21898 12.6584 5.70214 13.6198 5.54336 14.6685C5.27557 16.4359 5.59358 18.0461 6.91247 19.3549C7.3458 19.7774 7.85893 20.1095 8.42192 20.3316C8.98491 20.5538 9.5865 20.6616 10.1916 20.6488C10.7967 20.636 11.3932 20.5029 11.9463 20.2572C12.4994 20.0115 12.9981 19.6581 13.4132 19.2177C13.4835 19.1507 13.5371 19.0737 13.6074 18.9833Z" fill="white"/>
<path d="M108.601 28.4032H107.547V25.5478H105.471V6.46738H107.53V3.5752H108.584V6.44395H110.653V25.5244H108.608L108.601 28.4032Z" fill="#16C0F2"/>
<path d="M41.7761 23.0371C42.4456 23.6463 43.0515 24.2489 43.7076 24.7811C44.3637 25.3134 45.1235 25.8222 45.8232 26.3511C45.9571 26.4388 46.0527 26.5739 46.091 26.7293C46.091 29.096 46.091 31.4626 46.091 33.8293C46.0846 33.8758 46.0745 33.9216 46.0608 33.9665H41.7761V23.0371Z" fill="#16C0F2"/>
<path d="M159.372 2.9624C161.022 2.9624 162.214 3.91977 162.311 5.35582C162.382 6.13824 162.241 6.92537 161.903 7.63454C161.565 8.34372 161.042 8.94877 160.389 9.38615C159.929 9.73454 159.401 9.98223 158.838 10.1131C158.276 10.2441 157.693 10.2553 157.126 10.146C156.475 10.0563 155.883 9.72514 155.465 9.21845C155.048 8.71177 154.836 8.0666 154.873 7.41116C154.899 6.23077 155.383 5.10672 156.222 4.27656C157.062 3.44639 158.191 2.97515 159.372 2.9624ZM156.359 7.1534C156.359 8.35848 157.196 9.10497 158.368 8.94094C159.058 8.82341 159.685 8.46576 160.138 7.9311C160.59 7.39644 160.839 6.71912 160.841 6.01862C160.863 5.74626 160.818 5.4728 160.711 5.2214C160.604 4.96999 160.438 4.74803 160.227 4.57431C160.017 4.40059 159.767 4.28023 159.5 4.22339C159.233 4.16656 158.956 4.17494 158.692 4.24782C158.031 4.39426 157.44 4.76212 157.016 5.29051C156.592 5.81889 156.362 6.47612 156.362 7.1534H156.359Z" fill="#020202"/>
<path d="M149.912 7.44813C149.818 7.86656 149.725 8.2917 149.634 8.72017C149.544 9.14864 149.453 9.58381 149.356 10.0391H147.927C148.416 7.73379 148.903 5.43744 149.39 3.15001C150.447 3.1008 151.507 3.10862 152.563 3.17345C153.845 3.31404 154.381 4.32162 153.956 5.55014C153.814 5.94699 153.581 6.30509 153.276 6.59574C152.971 6.8864 152.602 7.10152 152.198 7.22386C152.366 7.6992 152.533 8.16114 152.694 8.61974C152.854 9.07834 153.028 9.54364 153.233 10.0759C152.714 10.0759 152.228 10.0759 151.77 10.0759C151.686 10.0759 151.576 9.9219 151.535 9.81813C151.298 9.20889 151.077 8.59296 150.866 7.98038C150.655 7.36779 150.632 7.34101 149.912 7.44813ZM150.153 6.27319C150.37 6.28851 150.588 6.28851 150.806 6.27319C151.308 6.19285 151.843 6.19954 152.255 5.82128C152.392 5.71332 152.496 5.56928 152.555 5.40542C152.614 5.24157 152.626 5.06443 152.59 4.89403C152.55 4.73815 152.46 4.59976 152.333 4.50001C152.207 4.40025 152.051 4.34465 151.89 4.3417C151.629 4.30154 151.358 4.31158 151.097 4.27476C150.712 4.21785 150.498 4.31828 150.451 4.75679C150.394 5.24887 150.26 5.7376 150.153 6.27319Z" fill="#020303"/>
<path d="M142.846 10.0558H141.42C141.915 7.72928 142.404 5.42624 142.913 3.02612C144.051 3.08303 145.195 3.05625 146.31 3.22027C147.314 3.37091 147.753 4.13078 147.649 5.13167C147.567 5.78779 147.259 6.39508 146.78 6.85032C146.3 7.30556 145.678 7.58066 145.018 7.62886C144.592 7.67122 144.164 7.68352 143.736 7.66568C143.455 7.66568 143.338 7.73932 143.287 8.02386C143.15 8.71678 142.993 9.38627 142.846 10.0558ZM143.585 6.51081C143.968 6.53439 144.351 6.53439 144.734 6.51081C145.027 6.5014 145.312 6.40731 145.554 6.23985C145.796 6.07238 145.984 5.83868 146.096 5.56683C146.158 5.45066 146.191 5.32124 146.193 5.18952C146.194 5.0578 146.164 4.92765 146.105 4.81009C146.045 4.69253 145.958 4.59102 145.851 4.51415C145.744 4.43727 145.62 4.3873 145.49 4.36845C145.071 4.30076 144.646 4.27496 144.221 4.29146C144.151 4.29146 144.037 4.41866 144.017 4.5057C143.867 5.14171 143.736 5.79111 143.585 6.51081Z" fill="#030303"/>
<path d="M156.362 7.15349C156.362 6.47437 156.595 5.81569 157.021 5.28705C157.447 4.75841 158.042 4.39169 158.706 4.24791C158.969 4.17503 159.246 4.16666 159.513 4.22349C159.78 4.28032 160.03 4.40068 160.241 4.5744C160.452 4.74812 160.617 4.97008 160.724 5.22149C160.831 5.4729 160.876 5.74636 160.855 6.01871C160.853 6.71921 160.604 7.39654 160.151 7.9312C159.698 8.46586 159.072 8.8235 158.381 8.94104C157.199 9.10506 156.356 8.35857 156.362 7.15349Z" fill="#18BEEF"/>
<path d="M150.153 6.27312C150.26 5.73753 150.394 5.2488 150.448 4.75338C150.494 4.31486 150.709 4.21444 151.094 4.27134C151.355 4.30816 151.626 4.29813 151.887 4.3383C152.048 4.34124 152.203 4.39684 152.33 4.49659C152.456 4.59634 152.546 4.73475 152.587 4.89062C152.623 5.06102 152.611 5.23815 152.551 5.402C152.492 5.56586 152.389 5.7099 152.252 5.81786C151.84 6.19612 151.304 6.18943 150.802 6.26977C150.586 6.28605 150.369 6.28717 150.153 6.27312Z" fill="#1BBCEC"/>
<path d="M143.585 6.51074C143.736 5.79104 143.867 5.14163 144.017 4.50227C144.037 4.41524 144.151 4.28803 144.221 4.28803C144.646 4.27154 145.071 4.29733 145.49 4.36503C145.62 4.38387 145.744 4.43386 145.851 4.51073C145.958 4.58761 146.045 4.68912 146.105 4.80668C146.164 4.92424 146.194 5.05438 146.193 5.1861C146.191 5.31783 146.158 5.44724 146.096 5.56341C145.984 5.83526 145.796 6.06897 145.554 6.23643C145.312 6.40389 145.027 6.49798 144.733 6.50739C144.351 6.53208 143.968 6.5332 143.585 6.51074Z" fill="#1CBCEB"/>
</g>
<defs>
<clipPath id="clip0_2952_316">
<rect width="166.847" height="34" fill="white"/>
</clipPath>
</defs>
</svg>
