<svg width="499" height="102" viewBox="0 0 499 102" fill="none" xmlns="http://www.w3.org/2000/svg">
<g clip-path="url(#clip0_2891_2)">
<path d="M137.72 34.85L142.36 39.74H124.83V21.93L129.09 26.83C130.35 25.83 131.18 25.19 132.03 24.55C137.26 20.63 143.03 17.98 149.64 17.8C157.01 17.61 163.39 20.39 168.98 24.98C174.145 29.1287 177.625 35.0147 178.77 41.54C179.074 44.1165 179.097 46.7184 178.84 49.3C178.4 59.78 169.94 72.37 154.66 74.6C150.57 75.2 146.46 75.67 142.44 74.33C138.24 72.9992 134.371 70.7903 131.09 67.85C118.697 56.5167 106.283 45.23 93.8499 33.99C91.8499 32.13 89.6299 30.35 86.8499 29.77C78.5099 28.03 68.4599 32.15 65.9399 42.45C65.1173 46.1484 65.4096 50.0077 66.7799 53.54C67.8218 56.504 69.7486 59.0766 72.2999 60.91C75.8099 63.4 79.8199 63.91 83.9599 63.7C87.4273 63.5959 90.7562 62.3158 93.3999 60.07C93.9399 59.6 94.4999 59.14 95.1499 58.6L90.3999 53.55H91.0399H107.67V71.04C106.16 69.44 104.75 67.95 103.27 66.4C102.33 67.25 101.44 68.11 100.51 68.89C90.2899 77.44 73.6999 77.89 62.9499 67.54C56.6699 61.54 53.3999 54.22 53.8499 45.6C54.0765 39.6815 56.1166 33.9757 59.694 29.2554C63.2714 24.535 68.2131 21.0282 73.8499 19.21C77.6899 18.06 81.6799 18.21 85.6399 18.28C91.0779 18.4063 96.2972 20.4459 100.38 24.04C102.94 26.2 105.27 28.63 107.76 30.88C118.593 40.7 129.437 50.5033 140.29 60.29C143.76 63.43 147.88 64.06 152.37 63.56C160.7 62.64 165.99 56.38 167.07 49.05C167.446 46.7724 167.343 44.4415 166.769 42.2057C166.194 39.97 165.161 37.8783 163.734 36.0638C162.307 34.2493 160.518 32.7517 158.48 31.6664C156.443 30.5811 154.202 29.9319 151.9 29.76C149.506 29.4159 147.066 29.6118 144.757 30.3334C142.449 31.0549 140.332 32.2839 138.56 33.93C138.35 34.12 138.14 34.3 137.95 34.5C137.859 34.6064 137.781 34.724 137.72 34.85Z" fill="#17C1F2"/>
<path d="M353.79 19.67L354.19 25.28C354.47 25.07 354.66 24.96 354.82 24.82C367.28 13.55 391.95 16.48 397.7 38.61C400.05 47.66 399.04 56.5 393.54 64.35C388.23 71.94 380.75 75.48 371.49 75.35C365.49 75.3032 359.696 73.1594 355.11 69.29C355.02 69.22 354.91 69.18 354.69 69.05V101.49H338.97V19.67H353.79ZM382.56 46.97C382.441 45.586 382.241 44.2103 381.96 42.85C380.62 37.79 377.59 34.13 372.46 32.73C367.33 31.33 362.55 32.35 358.74 36.34C355.22 40.01 354.33 44.49 354.88 49.4C355.101 51.3487 355.734 53.2281 356.738 54.9131C357.741 56.5982 359.092 58.0504 360.7 59.1731C362.308 60.2959 364.137 61.0636 366.064 61.4251C367.992 61.7867 369.974 61.7338 371.88 61.27C378.21 59.7 382.38 54.04 382.56 46.97Z" fill="#010101"/>
<path d="M248.87 19.64H263.75C263.88 21.5 264 23.32 264.13 25.14C265.771 23.8969 267.477 22.742 269.24 21.68C283.24 14.12 303.06 19.68 307.77 39.05C309.84 47.58 308.97 55.91 304.12 63.43C298.88 71.55 291.24 75.43 281.58 75.35C275.368 75.3171 269.373 73.0609 264.68 68.99V101.49H248.87V19.64ZM292.36 46.59C292.29 45.77 292.26 45.13 292.19 44.5C292.143 44.0619 292.067 43.6275 291.96 43.2C290.72 38.2 287.86 34.46 282.83 32.88C277.8 31.3 273.08 32.11 269.16 35.88C265.24 39.65 264.1 44.56 264.86 49.88C265.179 52.0457 266.008 54.1046 267.279 55.8869C268.55 57.6692 270.226 59.1238 272.17 60.1308C274.114 61.1378 276.269 61.6683 278.458 61.6786C280.647 61.6889 282.807 61.1787 284.76 60.19C290.23 57.29 292.37 52.4 292.36 46.59Z" fill="#010101"/>
<path d="M408.65 39.16C409.14 36.76 409.65 34.51 410.07 32.26C411.81 24.07 413.57 15.89 415.3 7.70002C415.672 5.51205 416.82 3.53137 418.533 2.12089C420.247 0.710405 422.411 -0.0354186 424.63 0.0200264C448.897 0.0200264 473.16 0.0200264 497.42 0.0200264C497.69 0.0200264 497.97 0.0200264 498.42 0.0200264C498.19 1.20003 498 2.31002 497.76 3.42002C495.76 12.8067 493.76 22.2 491.76 31.6C491.354 33.7603 490.19 35.7047 488.478 37.0833C486.765 38.4619 484.617 39.1841 482.42 39.12H408.65V39.16ZM476.1 8.85001C472.57 8.88824 469.193 10.2988 466.684 12.7831C464.176 15.2673 462.733 18.6303 462.66 22.16C462.551 24.1181 463.183 26.0454 464.43 27.559C465.677 29.0727 467.447 30.0619 469.39 30.33C471.084 30.6563 472.827 30.6229 474.506 30.2318C476.186 29.8407 477.765 29.1008 479.14 28.06C481.087 26.7551 482.646 24.9508 483.656 22.8361C484.666 20.7214 485.089 18.3741 484.88 16.04C484.56 11.71 481.03 8.85001 476.1 8.85001ZM447.84 22.25C449.99 21.93 449.98 21.93 450.65 23.77C451.32 25.61 451.98 27.44 452.65 29.26C452.77 29.57 453.1 30.02 453.35 30.03C454.76 30.11 456.17 30.03 457.72 30.03C457.13 28.44 456.61 27.03 456.11 25.68C455.61 24.33 455.11 22.93 454.63 21.51C455.835 21.1445 456.937 20.5019 457.849 19.6336C458.761 18.7654 459.456 17.6956 459.88 16.51C461.15 12.84 459.55 9.83001 455.72 9.41001C452.564 9.21636 449.399 9.19298 446.24 9.34C444.787 16.16 443.33 23.02 441.87 29.92H446.14C446.43 28.56 446.69 27.27 446.97 25.98C447.25 24.69 447.56 23.5 447.84 22.25ZM426.73 30.04C427.17 27.99 427.64 26.04 428 24.04C428.15 23.19 428.5 22.95 429.34 22.97C430.618 23.0233 431.898 22.9866 433.17 22.86C435.14 22.716 437 21.8942 438.433 20.5342C439.866 19.1743 440.783 17.3601 441.03 15.4C441.39 12.4 440.03 10.14 437.03 9.69001C433.7 9.20001 430.28 9.28002 426.88 9.11002C425.36 16.24 423.88 23.11 422.42 30.11L426.73 30.04Z" fill="#17C0F1"/>
<path d="M179.15 19.58C184.59 19.58 189.82 19.58 195.05 19.58C195.41 19.58 195.9 20.07 196.05 20.45C200.863 30.6833 205.65 40.92 210.41 51.16L211.78 54.04C212.63 52.04 213.4 50.22 214.16 48.4C218.013 39.1 221.87 29.8 225.73 20.5C225.9 20.11 226.37 19.58 226.73 19.58C232.04 19.52 237.35 19.58 242.82 19.58C241.72 22.25 240.68 24.81 239.62 27.37C229.493 51.77 219.353 76.1633 209.2 100.55C209.03 100.97 208.52 101.55 208.2 101.55C202.93 101.61 197.66 101.55 192.2 101.55C192.98 99.65 193.7 97.86 194.44 96.08C197.73 88.14 201.04 80.21 204.31 72.26C204.477 71.7657 204.452 71.2267 204.24 70.75C197.647 57.23 191.03 43.72 184.39 30.22L179.15 19.58Z" fill="#010101"/>
<path d="M40.65 56.71L51.85 67.25C47.7841 71.0951 42.6867 73.6734 37.18 74.67C29.44 76.12 21.87 75.57 14.86 71.73C4.77998 66.21 -0.140025 57.58 -2.48142e-05 46.07C0.209975 30.9 12.12 20.07 26 18.7C34 17.9 41.58 19.22 48.38 23.79C49.57 24.59 50.66 25.54 51.92 26.51L40.7 37.04C39.3709 35.3671 37.65 34.0476 35.6895 33.1981C33.7291 32.3487 31.5894 31.9956 29.46 32.17C26.2952 32.3237 23.2812 33.5679 20.9298 35.6916C18.5783 37.8152 17.0343 40.6872 16.56 43.82C15.76 49.1 16.71 53.91 20.65 57.82C21.9445 59.0822 23.4774 60.0741 25.1592 60.7377C26.8411 61.4014 28.6383 61.7235 30.4459 61.6853C32.2536 61.6472 34.0355 61.2495 35.6879 60.5154C37.3402 59.7814 38.8299 58.7257 40.07 57.41C40.28 57.21 40.44 56.98 40.65 56.71Z" fill="#010101"/>
<path d="M324.43 84.85H321.28V76.32H315.08V19.32H321.23V10.68H324.38V19.25H330.56V76.25H324.45L324.43 84.85Z" fill="#16C0F2"/>
<path d="M124.8 68.82C126.8 70.64 128.61 72.44 130.57 74.03C132.53 75.62 134.8 77.14 136.89 78.72C137.29 78.9819 137.576 79.3857 137.69 79.85C137.69 86.92 137.69 93.99 137.69 101.06C137.671 101.199 137.641 101.336 137.6 101.47H124.8V68.82Z" fill="#16C0F2"/>
<path d="M476.1 8.85C481.03 8.85 484.59 11.71 484.88 16C485.092 18.3374 484.671 20.6888 483.661 22.8073C482.651 24.9259 481.09 26.7334 479.14 28.04C477.765 29.0808 476.186 29.8207 474.506 30.2118C472.827 30.6029 471.083 30.6363 469.39 30.31C467.447 30.0418 465.677 29.0527 464.43 27.539C463.183 26.0254 462.551 24.0981 462.66 22.14C462.738 18.6138 464.183 15.2558 466.691 12.7758C469.199 10.2958 472.573 8.88807 476.1 8.85V8.85ZM467.1 21.37C467.1 24.97 469.6 27.2 473.1 26.71C475.163 26.3589 477.036 25.2905 478.388 23.6933C479.74 22.096 480.484 20.0726 480.49 17.98C480.553 17.1664 480.42 16.3495 480.1 15.5984C479.781 14.8474 479.286 14.1843 478.656 13.6653C478.026 13.1464 477.28 12.7868 476.482 12.617C475.684 12.4473 474.857 12.4723 474.07 12.69C472.095 13.1275 470.328 14.2264 469.062 15.8049C467.796 17.3833 467.108 19.3467 467.11 21.37H467.1Z" fill="#020202"/>
<path d="M447.84 22.25C447.56 23.5 447.28 24.77 447.01 26.05C446.74 27.33 446.47 28.63 446.18 29.99H441.91C443.37 23.1033 444.827 16.2433 446.28 9.40999C449.439 9.26297 452.604 9.28634 455.76 9.48C459.59 9.9 461.19 12.91 459.92 16.58C459.496 17.7656 458.801 18.8353 457.889 19.7036C456.977 20.5719 455.875 21.2145 454.67 21.58C455.17 23 455.67 24.38 456.15 25.75C456.63 27.12 457.15 28.51 457.76 30.1C456.21 30.1 454.76 30.1 453.39 30.1C453.14 30.1 452.81 29.64 452.69 29.33C451.98 27.51 451.32 25.67 450.69 23.84C450.06 22.01 449.99 21.93 447.84 22.25ZM448.56 18.74C449.209 18.7858 449.861 18.7858 450.51 18.74C452.01 18.5 453.61 18.52 454.84 17.39C455.248 17.0675 455.559 16.6372 455.735 16.1477C455.912 15.6582 455.948 15.129 455.84 14.62C455.72 14.1543 455.45 13.7409 455.073 13.4429C454.696 13.1449 454.231 12.9788 453.75 12.97C452.97 12.85 452.16 12.88 451.38 12.77C450.23 12.6 449.59 12.9 449.45 14.21C449.28 15.68 448.88 17.14 448.56 18.74Z" fill="#020303"/>
<path d="M426.73 30.04H422.47C423.95 23.09 425.41 16.21 426.93 9.04C430.33 9.21 433.75 9.12999 437.08 9.61999C440.08 10.07 441.39 12.34 441.08 15.33C440.833 17.2901 439.916 19.1043 438.483 20.4642C437.05 21.8242 435.19 22.646 433.22 22.79C431.947 22.9166 430.668 22.9533 429.39 22.9C428.55 22.9 428.2 23.12 428.05 23.97C427.64 26.04 427.17 28.04 426.73 30.04ZM428.94 19.45C430.082 19.5204 431.228 19.5204 432.37 19.45C433.248 19.4219 434.099 19.1408 434.821 18.6405C435.543 18.1403 436.105 17.4421 436.44 16.63C436.626 16.283 436.725 15.8963 436.729 15.5028C436.734 15.1093 436.643 14.7205 436.466 14.3693C436.288 14.0182 436.029 13.7149 435.709 13.4853C435.39 13.2556 435.019 13.1063 434.63 13.05C433.377 12.8478 432.108 12.7707 430.84 12.82C430.63 12.82 430.29 13.2 430.23 13.46C429.78 15.36 429.39 17.3 428.94 19.45Z" fill="#030303"/>
<path d="M467.11 21.37C467.11 19.3412 467.804 17.3735 469.078 15.7943C470.351 14.215 472.127 13.1195 474.11 12.69C474.896 12.4723 475.724 12.4473 476.522 12.617C477.32 12.7868 478.066 13.1464 478.696 13.6653C479.326 14.1843 479.821 14.8474 480.14 15.5984C480.46 16.3495 480.593 17.1664 480.53 17.98C480.524 20.0726 479.78 22.0961 478.428 23.6933C477.076 25.2905 475.203 26.3589 473.14 26.71C469.61 27.2 467.09 24.97 467.11 21.37Z" fill="#18BEEF"/>
<path d="M448.56 18.74C448.88 17.14 449.28 15.68 449.44 14.2C449.58 12.89 450.22 12.59 451.37 12.76C452.15 12.87 452.96 12.84 453.74 12.96C454.221 12.9688 454.686 13.1349 455.063 13.4329C455.44 13.7309 455.71 14.1444 455.83 14.61C455.938 15.119 455.902 15.6482 455.725 16.1377C455.549 16.6272 455.238 17.0575 454.83 17.38C453.6 18.51 452 18.49 450.5 18.73C449.854 18.7786 449.206 18.782 448.56 18.74V18.74Z" fill="#1BBCEC"/>
<path d="M428.94 19.45C429.39 17.3 429.78 15.36 430.23 13.45C430.29 13.19 430.63 12.81 430.84 12.81C432.108 12.7607 433.377 12.8378 434.63 13.04C435.019 13.0963 435.39 13.2456 435.709 13.4753C436.029 13.7049 436.288 14.0082 436.466 14.3594C436.643 14.7105 436.734 15.0993 436.729 15.4928C436.725 15.8863 436.626 16.2729 436.44 16.62C436.105 17.4321 435.543 18.1303 434.821 18.6305C434.099 19.1308 433.248 19.4119 432.37 19.44C431.228 19.5137 430.082 19.5171 428.94 19.45V19.45Z" fill="#1CBCEB"/>
</g>
<defs>
<clipPath id="clip0_2891_2">
<rect width="498.43" height="101.57" fill="white"/>
</clipPath>
</defs>
</svg>
