<svg width="13" height="10" viewBox="0 0 13 10" fill="none" xmlns="http://www.w3.org/2000/svg">
<path d="M11.2992 1.49873H9.59306C9.58873 1.48194 9.58656 1.46461 9.57843 1.44727L9.4219 1.05241C9.18899 0.472855 8.48865 0 7.86467 0H5.13479C4.51081 0 3.81047 0.473397 3.57864 1.05241L3.42102 1.44727C3.41398 1.46515 3.41182 1.48194 3.4064 1.49873H1.7013C0.766968 1.49873 0 2.26516 0 3.20003V8.29799C0 9.23395 0.766968 9.99875 1.7013 9.99875H11.2998C12.2341 9.99875 13 9.23341 13 8.29799V3.20003C12.9995 2.26516 12.2336 1.49873 11.2992 1.49873ZM6.49973 8.62406C5.05246 8.62406 3.87601 7.44598 3.87601 5.99871C3.87601 4.55144 5.05246 3.37444 6.49973 3.37444C7.947 3.37444 9.12454 4.55198 9.12454 5.99925C9.12454 7.44652 7.947 8.62406 6.49973 8.62406ZM11.8376 3.6691H10.1618V2.83117H11.8376V3.6691Z" fill="white"/>
</svg>
