<svg width="22" height="22" viewBox="0 0 22 22" fill="none" xmlns="http://www.w3.org/2000/svg">
<path d="M10.9834 22C4.96794 22.0106 0.00627172 17.0822 1.0155e-05 11.088C-0.00812988 4.94476 4.8784 0.00501307 10.9653 3.82873e-06C17.0521 -0.00500542 21.99 4.90593 21.9988 10.9922C22.0075 17.0784 17.0903 21.99 10.9834 22ZM13.932 9.98594C13.9432 9.96336 13.9512 9.93934 13.9558 9.91455C13.8863 8.0868 13.6202 6.29287 12.9928 4.56781C12.7185 3.81642 12.3923 3.07881 11.8356 2.48083C11.2477 1.84967 10.7342 1.829 10.1782 2.48083C9.83765 2.88625 9.5508 3.33389 9.32473 3.81267C8.67353 5.17581 8.36233 6.63851 8.18638 8.13314C8.11375 8.74677 8.07117 9.36416 8.01481 9.98844L13.932 9.98594ZM8.03047 12.0128C8.12001 13.9188 8.37297 15.7654 9.04484 17.5336C9.33788 18.3044 9.671 19.0564 10.2834 19.64C10.773 20.1084 11.2508 20.1409 11.6947 19.64C12.0854 19.1972 12.4151 18.7043 12.6753 18.1742C13.3321 16.8254 13.6302 15.3677 13.8093 13.8869C13.8838 13.2714 13.9257 12.6515 13.984 12.0153L8.03047 12.0128ZM19.9274 12.0128H15.9827C15.9283 14.5314 15.373 17.014 14.349 19.3157C16.8862 18.3576 19.4829 15.7804 19.9243 12.0141L19.9274 12.0128ZM19.935 9.98719C19.7308 8.34979 19.1548 6.87832 18.1648 5.57717C17.1749 4.27602 15.9232 3.30485 14.3271 2.65553C15.368 4.96256 15.9304 7.45669 15.9802 9.98719H19.935ZM7.64475 2.70312C5.25409 3.54091 2.48648 6.16889 2.0776 9.98093H6.02238C6.07297 7.47114 6.62456 4.99676 7.64475 2.70312ZM2.07196 12.0134C2.42386 15.2356 5.16768 18.8235 7.64475 19.2831C6.617 16.9946 6.0632 14.5217 6.01675 12.0134H2.07196Z" fill="#B7C0CB"/>
</svg>
