<svg width="17" height="17" fill="none" xmlns="http://www.w3.org/2000/svg"><path d="M11.729 1.271a1 1 0 0 0-1.414-.004 1.004 1.004 0 0 0-.225.355c-.832 1.736-1.748 2.715-2.904 3.293C5.889 5.555 4.4 6 2 6a1.006 1.006 0 0 0-.923.617 1.001 1.001 0 0 0 .217 1.09l3.243 3.243L0 17l6.05-4.537 3.242 3.242a.975.975 0 0 0 .326.217A.992.992 0 0 0 10 16c.13 0 .26-.027.382-.078A.996.996 0 0 0 11 15c0-2.4.444-3.889 1.083-5.166.577-1.156 1.556-2.072 3.293-2.904a.983.983 0 0 0 .354-.225 1 1 0 0 0-.004-1.414l-3.997-4.02z" fill="#000"/></svg>