<svg width="22" height="22" viewBox="0 0 22 22" fill="none" xmlns="http://www.w3.org/2000/svg">
<circle cx="11" cy="11" r="11" fill="#9BB0C4"/>
<path d="M9.54157 6H7.45825C7.11366 6 6.83325 6.28041 6.83325 6.625V15.375C6.83325 15.7196 7.11366 16 7.45825 16H9.54159C9.88618 16 10.1666 15.7196 10.1666 15.375V6.625C10.1666 6.28041 9.88616 6 9.54157 6Z" fill="white"/>
<path d="M14.5418 6H12.4585C12.1139 6 11.8335 6.28041 11.8335 6.625V15.375C11.8335 15.7196 12.1139 16 12.4585 16H14.5418C14.8864 16 15.1668 15.7196 15.1668 15.375V6.625C15.1668 6.28041 14.8864 6 14.5418 6Z" fill="white"/>
</svg>
