<svg width="17" height="13" viewBox="0 0 17 13" fill="none" xmlns="http://www.w3.org/2000/svg">
<path d="M15.7876 3.03911C14.5757 4.34942 8.0207 11.4562 7.41269 12.1151C6.72569 12.8594 5.63536 12.8979 4.93216 12.1807C4.6363 11.879 1.34667 8.02085 1.03086 7.58205C0.58316 6.96557 0.72605 6.00798 1.27427 5.47643C1.92024 4.84664 3.07657 4.80454 3.77337 5.64023C4.53631 6.55664 5.32215 7.45294 6.09497 8.36036C6.16799 8.44784 6.22037 8.44428 6.29573 8.3635C7.07362 7.51413 12.6009 1.53799 13.3984 0.657019C14.1576 -0.179629 15.2723 0.080471 15.8675 0.665396C16.4627 1.25032 16.5117 2.34267 15.7876 3.03911Z" fill="#22D091"/>
</svg>
