<svg width="20" height="16" fill="none" xmlns="http://www.w3.org/2000/svg"><g clip-path="url(#a)" fill="#B7C0CB"><path d="M.765 15.999c-.515 0-.77-.255-.765-.764.027-3.23 2.425-6.049 5.618-6.609 3.802-.667 7.365 1.868 7.959 5.67.047.323.075.65.082.977.013.454-.264.726-.721.726H.765zM10.565 3.748c.007 2.055-1.665 3.731-3.731 3.738-2.05.008-3.749-1.678-3.75-3.726C3.085 1.704 4.756.003 6.782 0c2.11-.003 3.777 1.647 3.784 3.748zM12.259 9.268a4.564 4.564 0 0 1 1.782-.633c2.61-.342 4.939 1.291 5.495 3.855.058.287.092.578.101.871.023.526-.238.787-.76.788-.914 0-3.48-.003-3.847 0-.105 0-.157-.024-.178-.14-.323-1.84-1.15-3.407-2.534-4.671a.738.738 0 0 1-.06-.07zM17.516 5.026a2.785 2.785 0 0 1-2.78 2.789c-1.527 0-2.788-1.246-2.788-2.759a2.785 2.785 0 0 1 2.8-2.808c1.517-.003 2.766 1.252 2.768 2.778z"/></g><defs><clipPath id="a"><path fill="#fff" d="M0 0h19.64v16H0z"/></clipPath></defs></svg>