<svg width="128" height="128" viewBox="0 0 128 128" fill="none" xmlns="http://www.w3.org/2000/svg">
<g clip-path="url(#clip0_2667:236)">
<path d="M110.455 0H17.5452C10.1397 0 4.13623 6.00325 4.13623 13.409V39.507C4.13623 46.9125 10.1395 52.916 17.5452 52.916H110.455C117.861 52.916 123.864 46.9128 123.864 39.507V13.409C123.864 6.00325 117.86 0 110.455 0Z" fill="#D8401D"/>
<path d="M17.5451 46.5976C13.6351 46.5976 10.4541 43.4166 10.4541 39.5066V13.4086C10.4541 9.49863 13.6351 6.31763 17.5451 6.31763H110.455C114.365 6.31763 117.546 9.49863 117.546 13.4086V39.5066C117.546 43.4166 114.365 46.5976 110.455 46.5976H17.5451Z" fill="#F9572B"/>
<path d="M38.9996 76.6619C42.6024 74.6629 47.1421 75.9627 49.1391 79.5659C51.6299 84.0547 51.9356 86.2784 51.9356 86.2784V51.2339C51.9356 49.4317 52.6661 47.7987 53.8494 46.6154C55.0326 45.4322 56.6656 44.7014 58.4679 44.7014C62.0736 44.7014 64.9974 47.6239 65.0001 51.2292V74.3584C65.0001 70.7504 67.9249 67.8257 71.5329 67.8257C75.1409 67.8257 78.0656 70.7504 78.0656 74.3584V76.0242C78.0656 72.4162 80.9904 69.4914 84.5984 69.4914C88.2064 69.4914 91.1311 72.4162 91.1311 76.0242V82.5569C91.1311 78.9489 94.0559 76.0242 97.6639 76.0242C101.272 76.0242 104.197 78.9489 104.197 82.5569V97.6239C104.197 111.672 95.1854 128 79.2324 128C79.2324 128 67.8546 128 59.7744 128C38.1591 128 38.0161 98.0704 38.0161 98.0704C38.0161 98.0704 38.0209 90.2732 36.0959 86.8014C34.0971 83.2007 35.3969 78.6609 38.9996 76.6619Z" fill="#FFE2C5"/>
<path d="M55.0663 98.308C53.3593 98.3865 51.936 97.0133 51.936 95.3045V51.234C51.936 49.4308 52.6678 47.7985 53.85 46.6165C55.0348 45.4318 56.6668 44.7025 58.4703 44.7025C59.5628 44.7025 60.5948 44.971 61.4978 45.4475C60.908 45.753 60.371 46.1505 59.905 46.6163C58.723 47.7983 57.991 49.4305 57.991 51.2338V95.3027C57.991 96.8995 56.7433 98.226 55.148 98.3043C55.121 98.3055 55.0935 98.3067 55.0663 98.308Z" fill="#E5C4A5"/>
<path d="M68.1307 87.5248C66.4237 87.6033 65.0005 86.23 65.0005 84.5213V74.3585C65.0005 72.5553 65.7322 70.923 66.9145 69.741C68.0992 68.5563 69.7312 67.827 71.5347 67.827C72.6272 67.827 73.6592 68.0955 74.5622 68.572C73.9725 68.8775 73.4355 69.275 72.9695 69.7408C71.7875 70.9228 71.0555 72.555 71.0555 74.3583V84.5193C71.0555 86.116 69.8077 87.4425 68.2125 87.5208C68.1855 87.522 68.158 87.5233 68.1307 87.5248Z" fill="#E5C4A5"/>
<path d="M81.1962 85.2411C79.4892 85.3196 78.0659 83.9463 78.0659 82.2376V76.0236C78.0659 74.2203 78.7977 72.5881 79.9799 71.4061C81.1647 70.2213 82.7967 69.4921 84.6002 69.4921C85.6927 69.4921 86.7247 69.7606 87.6277 70.2371C87.0379 70.5426 86.5009 70.9401 86.0349 71.4058C84.8529 72.5878 84.1209 74.2201 84.1209 76.0233V82.2351C84.1209 83.8318 82.8732 85.1583 81.2779 85.2366C81.2509 85.2386 81.2234 85.2396 81.1962 85.2411Z" fill="#E5C4A5"/>
<path d="M94.2616 87.8248C92.5546 87.9033 91.1313 86.53 91.1313 84.8213V82.5565C91.1313 80.7533 91.8631 79.121 93.0453 77.939C94.2301 76.7543 95.8621 76.025 97.6656 76.025C98.7581 76.025 99.7901 76.2935 100.693 76.77C100.103 77.0755 99.5663 77.473 99.1003 77.9388C97.9183 79.1208 97.1863 80.753 97.1863 82.5563V84.819C97.1863 86.4158 95.9386 87.7423 94.3434 87.8205C94.3164 87.8223 94.2891 87.8235 94.2616 87.8248Z" fill="#E5C4A5"/>
<path d="M65.8309 128H59.7759C38.1596 128 38.0176 98.0702 38.0176 98.0702C38.0176 98.0282 38.0149 90.2619 36.0959 86.8002C34.0976 83.2014 35.3981 78.6602 38.9996 76.6622C41.1269 75.4827 43.5829 75.4512 45.6469 76.3674C45.4469 76.4569 45.2494 76.5544 45.0546 76.6622C41.4531 78.6604 40.1526 83.2014 42.1509 86.8002C44.0701 90.2619 44.0726 98.0282 44.0726 98.0702C44.0726 98.0702 44.2149 128 65.8309 128Z" fill="#E5C4A5"/>
<path d="M37.2742 27.9042H28.5975V38.9719C28.5975 40.0132 27.325 40.5532 26.091 40.5532C24.8185 40.5532 23.5845 40.0132 23.5845 38.9719V13.9054C23.5845 12.8254 24.8187 12.3629 26.091 12.3629C27.3252 12.3629 28.5975 12.8257 28.5975 13.9054V23.9704H37.2742V13.9054C37.2742 12.8254 38.5085 12.3629 39.7807 12.3629C41.015 12.3629 42.2872 12.8257 42.2872 13.9054V38.9717C42.2872 40.0129 41.0147 40.5529 39.7807 40.5529C38.5082 40.5529 37.2742 40.0129 37.2742 38.9717V27.9042Z" fill="white"/>
<path d="M51.9288 24.4719H57.7905C58.7933 24.4719 59.3718 25.4359 59.3718 26.4772C59.3718 27.3642 58.8705 28.4052 57.7905 28.4052H51.9288V36.1564H62.8423C63.845 36.1564 64.4235 37.1977 64.4235 38.3932C64.4235 39.4344 63.9223 40.5527 62.8423 40.5527H49.1138C47.9955 40.5527 46.9155 40.0127 46.9155 38.9714V13.9442C46.9155 12.9029 47.9955 12.3629 49.1138 12.3629H62.8423C63.9223 12.3629 64.4235 13.4812 64.4235 14.5224C64.4235 15.7179 63.845 16.7592 62.8423 16.7592H51.9288V24.4719Z" fill="white"/>
<path d="M69.5527 40.5529C68.4345 40.5529 67.3545 40.0129 67.3545 38.9717V13.9054C67.3545 12.8254 68.5885 12.3629 69.861 12.3629C71.0952 12.3629 72.3675 12.8257 72.3675 13.9054V36.1564H81.777C82.7797 36.1564 83.281 37.2364 83.281 38.3547C83.281 39.4347 82.7797 40.5529 81.777 40.5529H69.5527Z" fill="white"/>
<path d="M86.02 13.9054C86.02 13.0957 86.7528 12.3629 87.9098 12.3629H95.661C100.559 12.3629 104.415 14.7154 104.415 21.0397V21.2712C104.415 27.5954 100.443 30.0252 95.3525 30.0252H91.0335V38.9717C91.0335 40.0129 89.761 40.5529 88.527 40.5529C87.2545 40.5529 86.0205 40.0129 86.0205 38.9717V13.9054H86.02ZM91.0333 16.7592V26.0914H95.3523C97.8588 26.0914 99.4015 24.6647 99.4015 21.6567V21.1939C99.4015 18.1859 97.859 16.7592 95.3523 16.7592H91.0333Z" fill="white"/>
</g>
<defs>
<clipPath id="clip0_2667:236">
<rect width="128" height="128" fill="white"/>
</clipPath>
</defs>
</svg>
