<svg width="155" height="33" fill="none" xmlns="http://www.w3.org/2000/svg"><path d="M13.932 27.54c6.264 0 9.792-3.06 11.916-6.804L18.9 16.812c-1.044 1.872-2.376 3.168-4.752 3.168-2.772 0-4.716-2.304-4.716-5.58v-.072c0-3.024 1.872-5.508 4.716-5.508 2.304 0 3.636 1.26 4.572 3.06l6.948-4.068C23.544 3.96 19.8 1.26 14.256 1.26 6.732 1.26.864 6.876.864 14.4v.072c0 7.812 6.084 13.068 13.068 13.068zm23.36-.072c6.48 0 11.088-4.752 11.088-10.296V17.1c0-5.544-4.572-10.224-11.016-10.224-6.48 0-11.088 4.752-11.088 10.296v.072c0 5.544 4.572 10.224 11.016 10.224zm.072-6.804c-1.8 0-3.24-1.548-3.24-3.492V17.1c0-1.872 1.332-3.42 3.168-3.42 1.8 0 3.24 1.548 3.24 3.492v.072c0 1.872-1.332 3.42-3.168 3.42zM50.232 32.76h8.172v-7.992c1.26 1.404 2.916 2.7 5.904 2.7 4.644 0 8.388-4.14 8.388-10.368v-.072c0-6.012-3.708-10.152-8.46-10.152-2.988 0-4.5 1.44-5.832 2.88V7.344h-8.172V32.76zM61.5 20.736c-1.872 0-3.276-1.584-3.276-3.528v-.072c0-1.98 1.404-3.528 3.276-3.528 1.872 0 3.276 1.548 3.276 3.528v.072c0 1.98-1.404 3.528-3.276 3.528zm22.91-3.024L80.99 7.344h-8.46l7.704 18.9c-.432.216-.864.288-1.332.288-.756 0-2.124-.468-3.6-1.296l-2.376 5.58c2.196 1.224 4.752 2.052 7.596 2.052 4.536 0 6.624-2.088 8.532-7.236l6.804-18.288h-8.316L84.41 17.712z" fill="#501EC6"/><path d="M97.346 27h8.424v-6.84h2.736c6.804 0 11.448-3.24 11.448-9.324v-.072c0-5.976-4.572-8.964-11.268-8.964h-11.34V27zm8.424-12.852V8.532h2.304c2.232 0 3.564.936 3.564 2.772v.072c0 1.8-1.44 2.772-3.6 2.772h-2.268zm15.687-8.208h8.46V.72h-8.46v5.22zm.144 21.06h8.172V7.344h-8.172V27zm10.686 5.76h8.172v-7.992c1.26 1.404 2.916 2.7 5.904 2.7 4.644 0 8.388-4.14 8.388-10.368v-.072c0-6.012-3.708-10.152-8.46-10.152-2.988 0-4.5 1.44-5.832 2.88V7.344h-8.172V32.76zm11.268-12.024c-1.872 0-3.276-1.584-3.276-3.528v-.072c0-1.98 1.404-3.528 3.276-3.528 1.872 0 3.276 1.548 3.276 3.528v.072c0 1.98-1.404 3.528-3.276 3.528z" fill="#22D091"/></svg>